<?xml version="1.0" encoding="UTF-8"?>
<svg id="Layer_1" data-name="Layer 1" xmlns="http://www.w3.org/2000/svg" viewBox="0 0 94.23 87.55">
  <defs>
    <style>
      .cls-1 {
        fill: #00a2c6;
        stroke-width: 0px;
      }
    </style>
  </defs>
  <path class="cls-1" d="m73.94,87.55H19.79c-1.91,0-3.45-1.55-3.45-3.45V3.45c0-1.91,1.55-3.45,3.45-3.45h54.15c1.91,0,3.45,1.55,3.45,3.45v80.65c0,1.91-1.55,3.45-3.45,3.45Zm-50.7-6.9h47.25V6.9H23.24v73.75Z"/>
  <path class="cls-1" d="m91.22,46.37h-16.22c-1.66,0-3.01-1.35-3.01-3.01s1.35-3.01,3.01-3.01h16.22c1.66,0,3.01,1.35,3.01,3.01s-1.35,3.01-3.01,3.01Z"/>
  <path class="cls-1" d="m19.23,46.43H3.01c-1.66,0-3.01-1.35-3.01-3.01s1.35-3.01,3.01-3.01h16.22c1.66,0,3.01,1.35,3.01,3.01s-1.35,3.01-3.01,3.01Z"/>
  <path class="cls-1" d="m91.22,23.92h-16.22c-1.66,0-3.01-1.35-3.01-3.01s1.35-3.01,3.01-3.01h16.22c1.66,0,3.01,1.35,3.01,3.01s-1.35,3.01-3.01,3.01Z"/>
  <path class="cls-1" d="m19.23,23.98H3.01c-1.66,0-3.01-1.35-3.01-3.01s1.35-3.01,3.01-3.01h16.22c1.66,0,3.01,1.35,3.01,3.01s-1.35,3.01-3.01,3.01Z"/>
  <path class="cls-1" d="m91.22,70.69h-16.22c-1.66,0-3.01-1.35-3.01-3.01s1.35-3.01,3.01-3.01h16.22c1.66,0,3.01,1.35,3.01,3.01s-1.35,3.01-3.01,3.01Z"/>
  <path class="cls-1" d="m19.23,70.75H3.01c-1.66,0-3.01-1.35-3.01-3.01s1.35-3.01,3.01-3.01h16.22c1.66,0,3.01,1.35,3.01,3.01s-1.35,3.01-3.01,3.01Z"/>
  <path class="cls-1" d="m60.07,29.21h-26.41c-1.11,0-2.01-.9-2.01-2.01v-11.22c0-1.11.9-2.01,2.01-2.01h26.41c1.11,0,2.01.9,2.01,2.01v11.22c0,1.11-.9,2.01-2.01,2.01Zm-24.41-4.01h22.4v-7.21h-22.4v7.21Z"/>
  <path class="cls-1" d="m60.07,51.8h-26.41c-1.11,0-2.01-.9-2.01-2.01v-11.22c0-1.11.9-2.01,2.01-2.01h26.41c1.11,0,2.01.9,2.01,2.01v11.22c0,1.11-.9,2.01-2.01,2.01Zm-24.41-4.01h22.4v-7.2h-22.4v7.2Z"/>
  <path class="cls-1" d="m60.07,74.39h-26.41c-1.11,0-2.01-.9-2.01-2.01v-11.22c0-1.11.9-2.01,2.01-2.01h26.41c1.11,0,2.01.9,2.01,2.01v11.22c0,1.11-.9,2.01-2.01,2.01Zm-24.41-4.01h22.4v-7.2h-22.4v7.2Z"/>
  <rect class="cls-1" x="33.66" y="61.17" width="13.46" height="11.22"/>
  <rect class="cls-1" x="46.86" y="38.58" width="13.46" height="11.22"/>
  <rect class="cls-1" x="33.66" y="15.36" width="13.46" height="11.22"/>
</svg>